[Header]
FileType HTR
DataType HTRS
FileVersion 1
NumSegments 28
NumFrames 4
DataFrameRate 24
EulerRotationOrder ZYX
CalibrationUnits mm
RotationUnits Degrees
GlobalAxisofGravity Y
BoneLengthAxis Y
ScaleFactor 1.0
[SegmentNames&Hierarchy]
waist	GLOBAL
chest	waist
head	chest
joint2	chest
right_shoulder1	joint2
right_elbow1	right_shoulder1
right_wrist1	right_elbow1
right_hand1	right_wrist1
right_finger3	right_hand1
right_finger4	right_hand1
right_finger5	right_hand1
joint3	chest
right_shoulder2	joint3
right_elbow2	right_shoulder2
right_wrist2	right_elbow2
right_hand2	right_wrist2
right_finger6	right_hand2
right_finger7	right_hand2
right_finger8	right_hand2
Center_pelvis	waist
left_pelvs	Center_pelvis
left_leg	left_pelvs
left_knee	left_leg
left_foot	left_knee
right_pelvis	Center_pelvis
right_leg	right_pelvis
right_knee	right_leg
right_foot	right_knee
[BasePosition]
waist	0	0	0	179.9999991	0	91.33221985	1
chest	0	0	0	-2.307808268e-010	-1.984983424e-008	1.332219854	1
head	0	0	0	180	-1.481061187e-024	90	1
joint2	0	0	0	4.615476202e-010	-1.707085745e-006	90	1
right_shoulder1	0	0	0	1.916575325e-008	-1.983803253e-008	-88.02506599	1
right_elbow1	0	0	0	-180	-1.948815659e-008	-12.92899665	1
right_wrist1	0	0	0	3.256551172e-010	1.942478841e-008	1.920938916	1
right_hand1	0	0	0	136.2194085	85.17676588	-133.4832578	1
right_finger3	0	0	0	154.4596717	79.84057755	147.6247455	1
right_finger4	0	0	0	154.4596717	79.84057755	147.6247455	1
right_finger5	0	0	0	154.4596717	79.84057755	147.6247455	1
joint3	0	0	0	-180	-1.89575832e-022	90	1
right_shoulder2	0	0	0	6.774897105e-015	-7.012540931e-015	-88.02506599	1
right_elbow2	0	0	0	-180	-6.888863384e-015	-12.92899665	1
right_wrist2	0	0	0	-1.240805042e-012	-7.401196581e-011	1.920938916	1
right_hand2	0	0	0	136.2194085	85.17676588	-133.4832578	1
right_finger6	0	0	0	154.4596717	79.84057755	147.6247455	1
right_finger7	0	0	0	154.4596717	79.84057755	147.6247455	1
right_finger8	0	0	0	154.4596717	79.84057755	147.6247455	1
Center_pelvis	0	0	0	-180	-8.537716493e-007	89.87586122	1
left_pelvs	0	0	0	0	0	-1.456358634	1
left_leg	0	0	0	179.9999991	0	88.69804733	1
left_knee	0	0	0	-180	-7.863991589e-009	-2.076172838	1
left_foot	0	0	0	179.9999985	-3.055580289e-010	-90.77422016	1
right_pelvis	0	0	0	0	0	-2.39554958	1
right_leg	0	0	0	0	0	-87.75885638	1
right_knee	0	0	0	179.9999991	3.702652968e-022	-2.076172838	1
right_foot	0	0	0	180	-7.405305937e-025	-90.77422016	1
[waist]
14	0	-3.152148962	0	1.823863029	-13.80161953	1.340749979	1.0
15	0	-3.152148962	0	1.823863029	-13.80161953	1.340749979	1.0
16	0	-3.152148962	0	1.823863029	-13.80161953	1.340749979	1.0
17	0	-3.152148962	0	1.823863029	-13.80161953	1.340749979	1.0
[chest]
14	22.35169411	-0.5212082863	-12.94430637	-18.46171761	29.56405258	-2.740258217	1.0
15	21.72159004	-0.5106779337	-12.61684036	-14.27190113	29.13751602	-2.754532576	1.0
16	20.82805252	-0.4957450628	-12.15246773	-8.33037281	28.53264427	-2.774774551	1.0
17	19.84320831	-0.4792862833	-11.64064407	-1.781731725	27.8659687	-2.797085047	1.0
[head]
14	20.62318993	0.1433748007	1.49219501	12.4878273	-2.865344763	-1.06232655	1.0
15	20.62318993	0.1433748007	1.49219501	9.642345428	-4.902100563	-1.020654559	1.0
16	20.62318993	0.1433748007	1.49219501	5.60720396	-7.790397644	-0.9615601301	1.0
17	20.62318993	0.1433748007	1.49219501	1.159746289	-10.97382545	-0.8964273334	1.0
[joint2]
14	-1.681384802	17.0123024	0.006940755993	-36.52508926	-0.9586548209	-1.611987829	1.0
15	-1.714346886	17.01148224	-0.001085723867	-31.33507156	-0.8581175804	-1.44293344	1.0
16	-1.76109004	17.01031685	-0.01246797666	-23.97516632	-0.7155470252	-1.203199744	1.0
17	-1.812609434	17.0090332	-0.0250132829	-15.86322212	-0.5584084392	-0.9389694929	1.0
[right_shoulder1]
14	14.91590023	0.6211000085	0.9477797747	-0.5797307491	-31.17917061	-0.2643386126	1.0
15	14.91590023	0.6211000085	0.9477797747	-1.363702536	-30.09890366	-0.6218045354	1.0
16	14.91590023	0.6211000085	0.9477797747	-2.475443363	-28.56699562	-1.128722668	1.0
17	14.91590023	0.6211000085	0.9477797747	-3.700782776	-26.87855721	-1.68743825	1.0
[right_elbow1]
14	-13.64346027	1.083028078	-0.5017899871	4.873590469	20.89361	0.1314669997	1.0
15	-13.64346027	1.083028078	-0.5017899871	4.832581043	19.37241554	-0.002299576765	1.0
16	-13.64346027	1.083028078	-0.5017899871	4.77442646	17.21523094	-0.1919923127	1.0
17	-13.64346027	1.083028078	-0.5017899871	4.710329056	14.83762455	-0.4010680914	1.0
[right_wrist1]
14	-10.90640926	0.7303527594	0.6790755987	-8.809705734	20.4888382	-31.38655663	1.0
15	-10.6807909	1.711453319	0.7663336396	-7.500277519	20.52242279	-27.31823158	1.0
16	-10.36084366	3.102739811	0.8900734782	-5.643393517	20.5700531	-21.54898453	1.0
17	-10.00820637	4.636189461	1.026456952	-3.596771002	20.62255096	-15.19023037	1.0
[right_hand1]
14	-7.870647907	-0.6475094557	0.1588414907	22.31841087	21.43924522	23.06956673	1.0
15	-7.870647907	-0.6475094557	0.1588414907	21.04644966	22.31181335	22.44286346	1.0
16	-7.870647907	-0.6475094557	0.1588414907	19.24269485	23.54918861	21.55414391	1.0
17	-7.870647907	-0.6475094557	0.1588414907	17.25463295	24.91300201	20.57461357	1.0
[right_finger3]
14	10.07660961	3.347558022	-1.489187002	-84.28975677	13.1826601	87.76701355	1.0
15	10.07660961	3.347558022	-1.489187002	-84.28975677	13.1826601	87.76701355	1.0
16	10.07660961	3.347558022	-1.489187002	-84.28975677	13.1826601	87.76701355	1.0
17	10.07660961	3.347558022	-1.489187002	-84.28975677	13.1826601	87.76701355	1.0
[right_finger4]
14	-1.201135993	3.376283169	11.27150059	-190.2575073	16.25144958	124.4265976	1.0
15	-1.201135993	3.376283169	11.27150059	-190.2575073	16.25144958	124.4265976	1.0
16	-1.201135993	3.376283169	11.27150059	-190.2575073	16.25144958	124.4265976	1.0
17	-1.201135993	3.376283169	11.27150059	-190.2575073	16.25144958	124.4265976	1.0
[right_finger5]
14	-6.853637218	4.493112087	-5.936322212	34.39846039	4.028532028	79.4876709	1.0
15	-6.853637218	4.493112087	-5.936322212	34.39846039	4.028532028	79.4876709	1.0
16	-6.853637218	4.493112087	-5.936322212	34.39846039	4.028532028	79.4876709	1.0
17	-6.853637218	4.493112087	-5.936322212	34.39846039	4.028532028	79.4876709	1.0
[joint3]
14	-1.494011283	-17.00883675	0.0525668934	9.125100136	-0.07437652349	-0.1250179708	1.0
15	-1.273587704	-17.00335693	0.1062414721	3.935096025	-0.1749561429	-0.294080168	1.0
16	-0.9610074162	-16.99558258	0.1823567152	-3.424786091	-0.3175868392	-0.5338252187	1.0
17	-0.6164875627	-16.98701668	0.2662495375	-11.53670883	-0.4747917354	-0.7980676889	1.0
[right_shoulder2]
14	-14.91590023	-0.6211000085	-0.9477797747	-3.413378	3.242487669	-13.52299023	1.0
15	-14.91590023	-0.6211000085	-0.9477797747	-3.087984085	-0.4472894371	-11.9745903	1.0
16	-14.91590023	-0.6211000085	-0.9477797747	-2.626547098	-5.679716587	-9.778821945	1.0
17	-14.91590023	-0.6211000085	-0.9477797747	-2.117959738	-11.44679928	-7.358688831	1.0
[right_elbow2]
14	12.27777576	0.7827096581	2.530205488	9.099788666	25.90629196	5.093193054	1.0
15	12.1416893	0.2346327752	2.391482592	11.35529423	23.63544846	10.41559601	1.0
16	11.94870472	-0.5425881743	2.194761276	14.55379868	20.41519737	17.96323013	1.0
17	11.73600101	-1.399226665	1.97793889	18.07913017	16.86589813	26.28209114	1.0
[right_wrist2]
14	11.3734808	-5.659012794	-0.5602906942	2.381554365	11.92063999	3.142079115	1.0
15	11.3734808	-5.659012794	-0.5602906942	0.4498621225	12.60441589	-3.204172134	1.0
16	11.3734808	-5.659012794	-0.5602906942	-2.289446115	13.57407188	-12.20371437	1.0
17	11.3734808	-5.659012794	-0.5602906942	-5.308660507	14.64280796	-22.12284088	1.0
[right_hand2]
14	8.313047409	0.02588134073	-0.2132965922	7.377863407	28.60035515	19.01592827	1.0
15	8.313047409	0.02588134073	-0.2132965922	10.09039879	27.03351784	21.61495972	1.0
16	8.313047409	0.02588134073	-0.2132965922	13.93701172	24.81159973	25.3006134	1.0
17	8.313047409	0.02588134073	-0.2132965922	18.1766777	22.36264801	29.36287308	1.0
[right_finger6]
14	-10.07660961	-3.347558022	1.489187002	-83.6856308	28.25860023	89.45963287	1.0
15	-10.07660961	-3.347558022	1.489187002	-83.6856308	28.25860023	89.45963287	1.0
16	-10.07660961	-3.347558022	1.489187002	-83.6856308	28.25860023	89.45963287	1.0
17	-10.07660961	-3.347558022	1.489187002	-83.6856308	28.25860023	89.45963287	1.0
[right_finger7]
14	1.201135993	-3.376283169	-11.27150059	-196.8155975	9.285179138	95.4122467	1.0
15	1.201135993	-3.376283169	-11.27150059	-196.8155975	9.285179138	95.4122467	1.0
16	1.201135993	-3.376283169	-11.27150059	-196.8155975	9.285179138	95.4122467	1.0
17	1.201135993	-3.376283169	-11.27150059	-196.8155975	9.285179138	95.4122467	1.0
[right_finger8]
14	6.853637218	-4.493112087	5.936322212	33.30503082	-9.988982201	100.1356964	1.0
15	6.853637218	-4.493112087	5.936322212	33.30503082	-9.988982201	100.1356964	1.0
16	6.853637218	-4.493112087	5.936322212	33.30503082	-9.988982201	100.1356964	1.0
17	6.853637218	-4.493112087	5.936322212	33.30503082	-9.988982201	100.1356964	1.0
[Center_pelvis]
14	-5.61697197	-0.3765999973	2.046987057	0	0	0	1.0
15	-5.61697197	-0.3765999973	2.046987057	0	0	0	1.0
16	-5.61697197	-0.3765999973	2.046987057	0	0	0	1.0
17	-5.61697197	-0.3765999973	2.046987057	0	0	0	1.0
[left_pelvs]
14	11.08985996	-0.01586684026	-0.09214995801	9.517683983	-0.6585861444	2.032189131	1.0
15	11.08985996	-0.01586684026	-0.09214995801	11.18735218	-1.549194336	4.780324936	1.0
16	11.08985996	-0.01586684026	-0.09214995801	13.55508614	-2.81215477	8.677422523	1.0
17	11.08985996	-0.01586684026	-0.09214995801	16.16476059	-4.204165936	12.97273064	1.0
[left_leg]
14	8.450808053e-008	-5.682914734	0.3641465902	1.030352831	44.10669708	-0.04996975511	1.0
15	8.450808053e-008	-5.682914734	0.3641465902	2.42370224	36.85253143	-0.1175440177	1.0
16	8.450808053e-008	-5.682914734	0.3641465902	4.39959383	26.56548691	-0.2133702487	1.0
17	8.450808053e-008	-5.682914734	0.3641465902	6.577384472	15.22729969	-0.3189881146	1.0
[left_knee]
14	-10.6974802	0.03457061946	-6.811455844e-009	1.330854774	-10.04333115	-0.9303984642	1.0
15	-10.6974802	0.03457061946	-6.811455844e-009	3.130573988	-17.84927368	-2.188579321	1.0
16	-10.6974802	0.03457061946	-6.811455844e-009	5.682733536	-28.9187851	-3.972790241	1.0
17	-10.6974802	0.03457061946	-6.811455844e-009	8.495676041	-41.1193924	-5.939313889	1.0
[left_foot]
14	-14.54718971	-0.01193540078	1.933258886e-009	6.227452755	1.223667622	-0.4629278183	1.0
15	-14.54718971	-0.01193540078	1.933258886e-009	-0.9715979695	2.878437281	-1.088946581	1.0
16	-14.54718971	-0.01193540078	1.933258886e-009	-11.18048191	5.225045681	-1.976696134	1.0
17	-14.54718971	-0.01193540078	1.933258886e-009	-22.43252373	7.811433315	-2.955157042	1.0
[right_pelvis]
14	-10.58689976	0.4465442896	0.2088862956	-9.776328087	1.326063497e-017	1.368483186	1.0
15	-10.58689976	0.4465442896	0.2088862956	-9.480618477	3.119303384e-017	3.219087362	1.0
16	-10.58689976	0.4465442896	0.2088862956	-9.061275482	5.662274963e-017	5.843406677	1.0
17	-10.58689976	0.4465442896	0.2088862956	-8.599082947	8.465090441e-017	8.735881805	1.0
[right_leg]
14	0.09169664979	-5.593488693	0.06310816854	0.06468591094	-42.80897141	-1.290066481	1.0
15	0.09169664979	-5.593488693	0.06310816854	0.1521608829	-30.61655426	-3.034627438	1.0
16	0.09169664979	-5.593488693	0.06310816854	0.2762080729	-13.32664776	-5.50856781	1.0
17	0.09169664979	-5.593488693	0.06310816854	0.4129305482	5.72996521	-8.23529911	1.0
[right_knee]
14	10.69750977	-0.03459575027	-4.718447855e-015	32.11556244	-35.48348236	-4.996716499	1.0
15	10.69750977	-0.03459575027	-4.718447855e-015	25.42918587	-28.71586037	-3.956413031	1.0
16	10.69750977	-0.03459575027	-4.718447855e-015	15.94731426	-19.11877632	-2.481171131	1.0
17	10.69750977	-0.03459575027	-4.718447855e-015	5.496572971	-8.541052818	-0.8551871777	1.0
[right_foot]
14	14.54718971	0.01191106997	1.774880104e-010	-9.197912216	27.67085838	-10.07922554	1.0
15	14.54718971	0.01191106997	1.774880104e-010	-7.282928944	21.9098568	-7.980756283	1.0
16	14.54718971	0.01191106997	1.774880104e-010	-4.567317486	13.74024963	-5.004942894	1.0
17	14.54718971	0.01191106997	1.774880104e-010	-1.574220657	4.735862255	-1.725057483	1.0
[EndOfFile]
